<svg width="1017px" height="78px" viewBox="-3285 1211 1017 78" version="1.1" xmlns="http://www.w3.org/2000/svg" xmlns:xlink="http://www.w3.org/1999/xlink">
  <!-- Generator: Sketch 41.2 (35397) - http://www.bohemiancoding.com/sketch -->
  <desc>Created with Sketch.</desc>
  <defs></defs>
  <g id="Group-9-Copy-5" stroke="none" stroke-width="1" fill="none" fill-rule="evenodd" transform="translate(-3285.000000, 1211.000000)">
    <path d="M1,38 C9.81392818,38 11.5976155,40.9409513 22.3778586,55.6384878 L26.2379609,60.9012627 C37.0184651,75.599155 52.2340842,73.6606736 60.2300409,56.5564765 L74.5444357,25.936472 C82.5372389,8.83902054 96.7256033,7.88656418 106.236832,23.8121109 L114.916122,38.3446648 C124.426546,54.2688641 142.081437,56.7334848 154.351218,43.8476649 L152.888123,45.3842192 C165.157101,32.4992429 183.302502,34.5105159 193.417812,49.8777398 L199.80882,59.5869875 C209.923771,74.9536667 223.940612,73.1243658 231.112853,55.5096217 L248.183896,16.5838038 C255.357685,-1.03474234 268.431988,-2.03097396 277.384299,14.3552344 L288.075694,30.9246416 C297.028842,47.3123828 314.235976,50.144776 326.500893,37.2593847 L333.915003,29.4701986 C341.339735,21.6698536 352.324131,22.8853739 358.449434,32.1852875 L372.184806,53.039399 C382.303914,68.4030181 398.721481,68.4146627 408.855498,53.0638483 L423.034698,31.5854693 C429.170872,22.2905104 439.786883,21.5630788 446.752122,29.9678246 L452.324997,36.6924471 C455.847243,40.9426358 461.655644,41.025381 465.303265,36.8717515 L471.366134,29.9678246 C478.331373,21.5630788 488.947384,22.2905104 495.083558,31.5854693 L509.262758,53.0638483 C519.396775,68.4146627 535.814342,68.4030181 545.933451,53.039399 L559.668822,32.1852875 C565.794126,22.8853739 576.778521,21.6698536 584.203253,29.4701986 L591.617363,38.2593847 C603.88228,51.144776 621.089414,48.3123828 630.042562,31.9246416 L640.733957,15.3552344 C649.686268,-1.03097396 662.760571,-0.0347423447 669.93436,17.5838038 L687.005403,55.5096217 C694.177644,73.1243658 708.194485,74.9536667 718.309436,59.5869875 L724.700444,49.8777398 C734.815754,34.5105159 752.961155,32.4992429 765.230133,45.3842192 L763.767038,43.8476649 C776.036819,56.7334848 793.69171,54.2688641 803.202134,38.3446648 L811.881424,23.8121109 C821.392653,7.88656418 835.581017,8.83902054 843.57382,25.936472 L857.888215,56.5564765 C865.884172,73.6606736 881.099791,75.599155 891.880295,60.9012627 L895.740397,55.6384878 C906.520641,40.9409513 925.866822,38.4788489 938.95072,50.1400231 L957.888659,67.0186781 C957.888659,67.0186781 969.744287,79.0168067 979.215452,72.2941176 C988.686616,65.5714286 1004.1682,44.3814017 1004.1682,44.3814017 C1006.83673,40.8570509 1012.58202,38 1016,38 L1016,38" id="Path-5" stroke="#0FC8B7" stroke-width="2" stroke-linecap="round"></path>
    <circle id="Oval-5-Copy" fill="#0FC8B7" cx="43.0130577" cy="71.2605042" r="3"></circle>
    <ellipse id="Oval-5-Copy-2" fill="#0FC8B7" cx="91.3688792" cy="12.7731092" rx="3" ry="3"></ellipse>
    <ellipse id="Oval-5-Copy-3" fill="#0FC8B7" cx="136.496192" cy="52.4369748" rx="3" ry="3"></ellipse>
    <ellipse id="Oval-5-Copy-4" fill="#0FC8B7" cx="173.823721" cy="36.9747899" rx="3" ry="3"></ellipse>
    <circle id="Oval-5-Copy-5" fill="#0FC8B7" cx="216.165397" cy="69.9159664" r="3"></circle>
    <circle id="Oval-5-Copy-6" fill="#0FC8B7" cx="262.521219" cy="3" r="3"></circle>
    <ellipse id="Oval-5-Copy-7" fill="#0FC8B7" cx="309.762786" cy="45.0420168" rx="3" ry="3"></ellipse>
    <ellipse id="Oval-5-Copy-8" fill="#0FC8B7" cx="346.533188" cy="24.8739496" rx="3" ry="3"></ellipse>
    <circle id="Oval-5-Copy-9" fill="#0FC8B7" cx="391.103373" cy="64.5378151" r="3"></circle>
    <ellipse id="Oval-5-Copy-10" fill="#0FC8B7" cx="435.673558" cy="24.8739496" rx="3" ry="3"></ellipse>
    <circle id="Oval-5-Copy-11" fill="#0FC8B7" cx="458.630033" cy="39.3193277" r="3"></circle>
    <circle id="Oval-5-Copy-12" fill="#0FC8B7" cx="483.586507" cy="24.2016807" r="3"></circle>
    <circle id="Oval-5-Copy-13" fill="#0FC8B7" cx="528.713819" cy="64.5378151" r="3"></circle>
    <ellipse id="Oval-5-Copy-14" fill="#0FC8B7" cx="573.284004" cy="24.8739496" rx="3" ry="3"></ellipse>
    <ellipse id="Oval-5-Copy-15" fill="#0FC8B7" cx="610.611534" cy="46.0420168" rx="3" ry="3"></ellipse>
    <circle id="Oval-5-Copy-16" fill="#0FC8B7" cx="655.853101" cy="3" r="3"></circle>
    <circle id="Oval-5-Copy-17" fill="#0FC8B7" cx="703.651795" cy="69.9159664" r="3"></circle>
    <ellipse id="Oval-5-Copy-18" fill="#0FC8B7" cx="745.436344" cy="37.6470588" rx="3" ry="3"></ellipse>
    <ellipse id="Oval-5-Copy-19" fill="#0FC8B7" cx="783.878128" cy="52.4369748" rx="3" ry="3"></ellipse>
    <ellipse id="Oval-5-Copy-20" fill="#0FC8B7" cx="828.448313" cy="12.7731092" rx="3" ry="3"></ellipse>
    <circle id="Oval-5-Copy-21" fill="#0FC8B7" cx="876.361262" cy="70.5882353" r="3"></circle>
    <ellipse id="Oval-5-Copy-22" fill="#0FC8B7" cx="920.37432" cy="43.0252101" rx="3" ry="3"></ellipse>
    <circle id="Oval-5-Copy-23" fill="#0FC8B7" cx="973.858542" cy="74.6218487" r="3"></circle>
    <path d="M3,41 C3,41 3,35 3,35 C1.34314575,35 0,36.3431458 0,38 C0,39.6568542 1.34314575,41 3,41 Z" id="Oval-6" fill="#0FC8B7" transform="translate(1.500000, 38.000000) scale(-1, 1) translate(-1.500000, -38.000000) "></path>
    <path d="M1017,41 C1017,41 1017,35 1017,35 C1015.34315,35 1014,36.3431458 1014,38 C1014,39.6568542 1015.34315,41 1017,41 Z" id="Oval-6" fill="#0FC8B7"></path>
  </g>
</svg>
